<svg width="296" height="213" viewBox="0 0 296 213" fill="none" xmlns="http://www.w3.org/2000/svg">
<path d="M281.739 88.1247C281.12 87.5903 281.12 87.2458 281.378 86.5485C281.528 86.1621 281.593 85.7477 281.568 85.3339C281.542 84.9201 281.428 84.5167 281.232 84.1515C281.036 83.7862 280.763 83.4678 280.432 83.218C280.102 82.9683 279.721 82.7932 279.316 82.7049C278.652 82.5419 278.687 82.3645 278.79 81.8012C279.163 79.7525 278.594 78.8262 276.615 78.3682C275.961 78.2176 275.724 78.0216 275.619 77.3635C275.243 75.0259 273.996 73.9325 271.612 73.7901C269.614 73.6684 267.665 74.0315 265.747 74.5391C260.864 75.8285 256 77.186 251.106 78.4136C250.282 78.6199 249.075 79.5235 248.504 78.5002C247.84 77.3036 249.147 76.5568 249.925 75.8326C250.702 75.1085 251.589 74.5205 252.385 73.8232C253.155 73.1675 253.884 72.4647 254.567 71.7188C255.487 70.7274 255.989 69.4181 255.967 68.065C255.932 65.7956 254.653 64.9559 252.614 65.9111C250.513 66.8931 248.735 68.3662 246.91 69.7691C242.258 73.3425 237.814 77.0932 234.69 82.1973C227.452 94.0273 224.103 107.085 222.563 120.681C221.684 128.457 221.713 136.313 220.853 144.097C220.571 146.651 220.408 149.255 219.119 151.572C217.969 153.635 216.133 153.953 214.277 152.461C213.37 151.733 212.669 150.81 212.009 149.874C209.444 146.199 207.565 142.152 205.65 138.124C202.255 130.988 199.28 123.643 195.119 116.889C191.151 110.45 186.264 104.923 179.603 101.116C174.277 98.0833 168.522 96.4782 162.453 95.9583C161.432 95.8717 160.987 95.6324 161.082 94.5142C161.195 93.2272 161.195 91.9328 161.082 90.6458C160.968 89.4389 161.403 88.9045 162.525 88.428C165.67 87.0911 168.691 85.4591 170.879 82.7317C174.124 78.6859 173.972 73.9119 173.436 69.1481C172.699 62.6885 170.976 56.4331 169.13 50.2232C167.068 43.2705 165.391 36.194 162.737 29.4207C162.55 28.9421 162.7 28.6656 162.869 28.2902C163.88 26.0682 163.577 23.9844 162.115 22.0657C160.725 20.2378 158.832 19.1444 156.665 18.4986C153.192 17.467 149.666 17.4423 146.148 18.1747C144.931 18.4284 144.692 18.1623 144.704 16.9719C144.768 11.9957 144.733 7.01736 144.729 2.04112C144.729 -0.00755851 144.729 -0.0219994 142.667 0.00482117L59.3482 0.761994L1.73335 1.2922C-0.0173669 1.30871 -0.0483125 1.30872 0.0176745 3.08507C0.250691 9.34663 0.524964 15.6082 0.753856 21.8594C1.40548 39.6765 2.04887 57.495 2.684 75.3148C3.16859 88.7127 3.68824 102.111 4.12746 115.508C4.17489 116.953 4.6368 117.279 5.98335 117.274C20.0798 117.233 34.1763 117.25 48.2707 117.25H49.6832C47.0974 119.232 44.6001 121.106 42.1957 123.101C39.7385 125.117 37.4241 127.302 35.2692 129.639C25.7382 140.082 19.0818 151.964 17.63 166.263C16.4897 177.507 19.9169 187.356 27.6229 195.623C34.7557 203.278 43.8063 207.589 53.7662 210.218C60.1587 211.91 66.6975 212.562 73.2818 212.813C81.293 213.119 89.2981 213.207 97.2145 211.575C103.461 210.284 108.467 207.243 111.73 201.576C113.365 198.737 115.513 196.265 117.741 193.87C118.374 193.212 118.978 192.516 119.644 191.908C121.087 190.606 122.692 190.129 124.568 191.01C125.318 191.367 126.14 191.545 126.97 191.532C128.459 191.501 129.391 190.455 128.874 189.075C128.142 187.117 127.812 185.442 128.668 183.274C129.552 181.052 127.89 179.18 126.078 177.821C125.271 177.249 124.626 176.48 124.203 175.586C123.226 173.513 121.603 172.067 119.322 171.46C119.063 171.524 118.792 171.525 118.532 171.463C118.271 171.401 118.03 171.277 117.827 171.103C113.893 168.196 110.23 168.233 106.298 171.159C104.108 172.789 102.248 174.771 100.411 176.777C99.1528 178.149 97.9465 179.579 96.1855 181.019C96.1855 179.607 96.1999 178.522 96.1855 177.439C96.1855 176.975 96.4536 176.82 96.8041 176.655C102.594 173.806 106.55 169.063 109.936 163.771C110.474 162.929 110.991 162.626 111.998 162.626C134.752 162.659 157.509 162.655 180.267 162.614C181.711 162.614 182.07 163.01 182.103 164.415C182.309 173.08 182.606 181.73 182.882 190.387C182.899 190.913 182.789 191.625 183.606 191.625C184.497 191.625 184.389 190.895 184.369 190.301C184.238 186.388 184.105 182.474 183.969 178.559C183.952 178.097 183.969 177.633 183.969 176.797C184.577 177.738 184.952 178.359 185.367 178.953C188.435 183.36 191.86 187.359 196.416 190.393C205.076 196.17 214.463 198.836 224.802 197.449C233.331 196.306 240.452 192.527 245.37 185.215C248.228 180.969 249.966 176.22 251.273 171.314C253.981 161.153 254.779 150.744 255.08 140.289C255.286 132.641 255.006 124.995 254.668 117.351C254.42 111.766 256.031 106.996 261.077 103.862C264.867 101.508 268.669 99.2078 272.816 97.4912C275.864 96.2307 279.002 95.0856 281.617 92.9647C283.527 91.3988 283.597 89.7339 281.739 88.1247ZM159.366 31.0197C161.519 30.3099 161.607 30.2336 162.302 32.4804C164.824 40.64 167.251 48.8244 169.431 57.0851C170.798 62.2862 172.044 67.51 172.287 74.863C172.699 79.5813 169.153 83.5982 163.542 86.3133C160.135 87.9638 156.564 89.1315 152.916 90.0888C151.491 90.4643 151.328 90.8686 152.272 92.024C153.977 94.0939 156.171 95.7063 158.655 96.7155C159.127 96.9218 159.535 97.0332 159.609 97.7037C160.29 103.811 154.852 110.47 149.476 111.139C146.909 111.487 144.296 111.204 141.863 110.314C137.945 108.869 134.674 106.48 131.926 103.336C129.338 100.38 128.36 96.9754 128.331 93.0638C128.278 85.9275 127.94 78.7932 127.713 71.6589C127.657 69.864 127.622 69.8145 125.878 70.2498C124.759 70.5249 123.604 70.6258 122.454 70.549C120.295 70.4149 118.856 69.2637 118.229 67.2005C117.749 65.614 118.454 63.9511 120.098 62.6988C122.007 61.2423 124.222 60.4934 126.515 59.9941C127.698 59.7362 128.107 59.1812 127.913 57.9846C127.686 56.5796 127.626 55.1478 127.441 53.7346C127.098 51.1413 127.991 48.8409 129.09 46.5941C129.695 45.3563 130.381 44.1576 131.012 42.9321C131.93 41.1454 132.544 39.2701 132.373 37.2358C132.303 36.4106 132.606 36.295 133.349 36.2311C142.22 35.4698 150.909 33.8069 159.366 31.0197ZM6.84322 115.758C5.83074 115.758 5.53998 115.511 5.50699 114.46C4.97085 98.1618 4.40446 81.8631 3.80783 65.5645C3.27581 50.6 2.73621 35.6369 2.18906 20.6752C1.98286 15.1048 1.74297 9.53435 1.4694 3.96393C1.41991 2.97776 1.70653 2.75497 2.64891 2.74878C15.1287 2.65594 27.6003 2.4847 40.0904 2.41455C50.8648 2.35679 61.6413 2.40216 72.4178 2.40216V2.09683C90.8887 1.95928 109.358 1.8128 127.826 1.65738C132.478 1.61818 137.128 1.56453 141.778 1.4655C142.77 1.44487 143.238 1.56042 143.222 2.77147C143.141 7.74771 143.168 12.726 143.207 17.7022C143.207 18.5275 142.954 18.8597 142.166 19.1464C136.986 21.0197 131.777 22.86 126.872 25.377C121.85 27.9539 118.029 31.6716 116.745 37.4298C115.837 41.5003 116.495 45.4759 117.58 49.4227C118.508 52.7856 119.436 56.1505 120.378 59.5072C120.557 60.1468 120.559 60.5511 119.91 60.9988C116.938 63.0392 115.992 65.4118 116.916 68.1331C117.811 70.7429 120.471 72.2696 123.811 72.0922C126.259 71.9622 126.243 71.9622 126.315 74.3802C126.504 80.9203 126.688 87.4583 126.933 93.9963C126.973 95.0279 126.773 95.3662 125.636 95.4405C106.032 96.7217 86.8689 100.159 68.5782 107.586C63.3311 109.702 58.2603 112.232 53.4136 115.152C52.7924 115.541 52.0722 115.744 51.3391 115.735C36.5085 115.727 21.6765 115.735 6.84322 115.758ZM96.7794 182.603C99.5261 180.206 101.778 177.321 104.384 174.784C105.468 173.726 106.636 172.757 107.875 171.887C110.556 170.03 113.237 169.896 116.06 171.906C111.237 173.992 107.459 177.437 103.626 180.806C103.371 181.005 103.132 181.222 102.91 181.456C102.498 181.93 101.528 182.3 102.291 183.106C102.978 183.831 103.438 182.974 103.877 182.607C105.743 181.037 107.552 179.397 109.445 177.848C111.338 176.298 113.288 174.846 115.522 173.825C116.664 173.303 117.846 172.941 119.128 173.187C120.737 173.294 121.58 174.41 122.593 175.768C121.25 175.547 120.19 175.805 119.118 175.952C114.278 178.194 110.548 181.91 106.616 185.359C106.189 185.733 105.698 186.203 106.203 186.75C106.772 187.369 107.265 186.816 107.713 186.416C110.727 183.715 113.693 180.961 117.122 178.764C117.656 178.421 118.25 178.171 118.815 177.879C121.819 176.447 126.641 178.807 127.34 182.05C127.507 182.824 127.195 183.494 126.88 184.15C126.653 184.631 126.393 184.747 125.974 184.307C123.871 182.096 121.329 182.011 118.609 182.816C115.536 184.194 113.014 186.311 110.738 188.745C110.325 189.18 109.589 189.667 110.356 190.332C111.028 190.915 111.414 190.202 111.8 189.795C113.73 187.819 115.718 185.906 118.264 184.732C123.02 182.358 125.467 185.26 127.354 188.974C127.715 189.682 127.387 190.133 126.529 189.985C126.254 189.956 125.984 189.896 125.723 189.805C123.003 188.667 120.52 188.98 118.299 190.986C114.961 194.479 111.968 198.287 109.362 202.357C106.475 206.929 101.98 209.11 96.8557 210.185C90.3683 211.547 83.7902 211.736 77.2018 211.528C70.7145 211.322 64.2313 210.985 57.8511 209.651C48.2686 207.645 39.3295 204.175 31.8564 197.647C21.3707 188.483 17.2156 176.899 19.5272 163.208C21.8161 149.69 28.6003 138.45 38.1602 128.842C45.2435 121.725 53.5352 116.305 62.5507 111.945C63.2724 111.597 63.7261 111.778 64.2911 112.166C71.0362 116.781 74.8366 123.307 76.4904 131.167C77.5215 136.072 77.6225 141.031 77.0761 146.01C76.9771 146.913 76.6843 147.419 75.7337 147.776C69.5474 150.101 64.3344 153.719 60.9423 159.57C59.2902 162.345 58.2208 165.428 57.7996 168.63C57.2593 173.043 59.0946 176.42 62.662 178.914C66.0026 181.25 69.8216 182.409 73.7458 183.28C78.0267 184.227 82.3695 184.584 86.7473 184.707C88.5887 184.761 89.8404 184.058 90.6426 182.45C91.5829 180.556 92.4985 178.65 93.4532 176.762C93.711 176.249 93.8821 175.669 94.5028 175.149C94.6142 177.474 94.709 179.655 94.8266 181.834C94.8554 182.374 94.7358 183.014 95.3812 183.278C96.0267 183.542 96.3855 182.954 96.7794 182.615V182.603ZM91.9376 145.995C92.7851 145.933 93.049 146.168 93.0882 147.027C93.4553 155.025 93.8471 163.022 94.2636 171.019C94.2935 171.747 94.11 172.469 93.7357 173.094C92.484 175.392 91.1478 177.67 90.158 180.084C89.1682 182.498 87.8485 183.798 85.7822 183.154C78.3711 182.741 71.6569 182.065 65.4953 178.896C62.2084 177.204 59.6349 174.815 59.2451 170.889C58.9688 168.128 59.8638 165.525 60.9092 163.008C63.5302 156.719 68.3018 152.585 74.418 149.909C79.9939 147.46 85.8997 146.424 91.9376 145.995ZM108.595 163.09C105.735 167.423 102.518 171.419 98.0579 174.231C97.7486 174.437 97.4186 174.594 97.1176 174.802C96.2041 175.421 95.9298 175.19 95.8803 174.099C95.7195 169.728 95.507 165.358 95.2431 160.99C95.1874 160.055 95.4699 159.511 96.1896 158.927C99.9736 155.832 102.611 152.1 102.512 146.942C102.512 146.529 102.413 146.117 102.392 145.704C102.345 144.673 101.842 144.332 100.796 144.314C93.4986 144.182 86.2689 144.623 79.1938 146.583C79.0185 146.631 78.833 146.647 78.5463 146.697C79.9197 132.461 77.2905 119.862 65.1015 110.743C70.1081 108.469 75.2537 106.514 80.5074 104.892C88.2361 102.47 96.1215 100.724 104.094 99.3336C105.077 99.1603 105.37 99.5688 105.587 100.39C106.793 104.947 107.348 109.606 107.715 114.285C108.909 129.538 109.329 144.819 109.441 160.119C109.476 161.174 109.181 162.213 108.595 163.09ZM115.505 161.219C114.014 161.054 112.064 161.856 111.138 160.901C110.288 160.022 110.882 158.095 110.874 156.633C110.817 144.34 110.411 132.059 109.655 119.789C109.255 113.462 108.74 107.132 107.261 100.937C106.803 99.02 106.776 99.0221 108.756 98.6672C109.253 98.5785 109.754 98.5166 110.255 98.4609C113.227 98.0751 113.2 98.0813 113.86 101.05C115.097 106.598 115.425 112.249 115.777 117.891C116.318 126.482 116.602 135.083 116.681 146.286C116.681 149.125 116.66 154.557 116.699 159.991C116.707 160.897 116.522 161.33 115.505 161.219ZM172.271 159.859C172.242 160.911 171.986 161.239 170.879 161.233C162.315 161.184 153.751 161.206 145.187 161.206C136.759 161.206 128.334 161.178 119.908 161.233C118.605 161.233 118.172 161.07 118.178 159.562C118.252 143.676 118.089 127.79 116.862 111.931C116.52 107.491 116.056 103.043 114.744 98.7497C114.538 98.1019 114.684 97.8605 115.386 97.8028C119.007 97.5036 122.626 97.1611 126.245 96.8434C126.647 96.8083 126.991 96.7691 127.156 97.3736C129.09 104.469 134.208 108.595 140.586 111.38C144.993 113.305 149.513 113.581 153.864 111.093C157.634 108.935 159.665 105.401 161.014 101.448C161.325 100.538 161.133 99.4368 161.084 98.4258C161.042 97.6212 161.185 97.2602 162.127 97.3943C164.54 97.7285 166.942 98.0648 169.328 98.5909C170.538 98.857 170.823 99.5605 171.021 100.559C171.967 105.304 172.227 110.138 172.4 114.962C172.932 129.926 172.683 144.893 172.271 159.859ZM179.331 156.371C179.317 157.014 179.203 157.654 179.17 158.297C179.016 161.206 179.02 161.209 176.024 161.209C173.78 161.209 173.755 161.209 173.821 158.995C174.219 145.378 174.397 131.743 174.042 118.116C173.889 112.232 173.607 106.344 172.537 100.532C172.502 100.241 172.483 99.9471 172.481 99.6534C173.964 99.9732 175.199 100.664 176.485 101.228C177.137 101.514 177.213 102.158 177.385 102.701C178.189 105.257 178.548 107.91 178.805 110.561C180.286 125.814 179.661 141.095 179.329 156.371H179.331ZM186.058 160.127C184.838 155.129 183.298 150.215 181.445 145.415C181.219 144.813 181.119 144.172 181.15 143.53C181.416 134.182 181.356 124.834 180.738 115.502C180.453 111.24 180.076 106.977 178.937 102.515C184.637 105.847 188.87 110.303 192.405 115.496C196.172 121.036 198.888 127.128 201.697 133.169C204.157 138.461 206.464 143.825 209.462 148.848C209.559 149.028 209.645 149.214 209.72 149.403C199.204 152.038 192.411 158.755 188.167 168.634C187.435 165.698 186.736 162.911 186.058 160.127ZM280.881 91.632C279.658 92.6986 278.2 93.4021 276.757 94.1077C273.156 95.8428 269.356 97.1508 265.89 99.1644C263.943 100.297 262.05 101.521 260.141 102.717C255.344 105.727 253.177 110.194 253.195 115.731C253.216 120.982 253.463 126.23 253.544 131.483C253.67 139.548 253.494 147.608 252.581 155.622C251.789 162.572 250.554 169.445 248.213 176.073C244.708 186.015 238.315 192.861 227.852 195.37C219.398 197.396 211.219 196.275 203.379 192.648C199.342 190.779 195.488 188.644 193.382 184.379C192.341 182.273 191.617 180.028 190.609 177.936C187.982 172.483 189.588 167.784 192.671 163.224C195.914 158.434 200.059 154.681 205.377 152.302C205.919 152.052 206.474 151.833 207.04 151.644C209.163 150.969 210.889 150.755 212.698 152.927C215.566 156.368 219.478 155.362 220.988 151.12C221.411 149.955 221.724 148.753 221.924 147.53C222.586 143.297 222.81 139.016 223.06 134.739C223.625 125.087 224.149 115.432 226.615 106.014C228.945 97.1199 231.976 88.5435 237.338 80.9409C239.872 77.347 243.204 74.6071 246.599 71.9168C248.615 70.3179 250.603 68.6715 252.867 67.413C253.259 67.2067 253.721 66.8086 254.119 67.0871C254.61 67.4254 254.593 68.0753 254.466 68.62C254.146 69.9692 253.344 71.0235 252.298 71.9024C250.958 73.0247 249.55 74.0728 248.281 75.2715C246.45 77.0024 246.157 78.4652 247.737 80.355C251.115 84.3946 250.354 88.2732 247.828 92.286C247.483 92.8327 246.415 93.6022 247.475 94.2253C248.459 94.8071 248.712 93.5858 249.106 93.006C250.058 91.6459 250.759 90.1271 251.179 88.5208C251.797 85.9935 252.125 84.3512 249.57 80.258C256.251 79.082 262.477 76.5444 269.059 75.4344C269.878 75.3177 270.706 75.268 271.534 75.2859C271.881 75.274 272.228 75.3309 272.553 75.4534C272.879 75.5759 273.177 75.7616 273.431 75.9997C273.701 76.254 273.907 76.5691 274.032 76.9189C274.156 77.2688 274.195 77.6432 274.146 78.0113C274.043 78.7767 273.268 78.4817 272.777 78.589C267.547 79.7381 262.599 81.7311 257.604 83.592C257.109 83.7777 256.641 84.0727 256.942 84.7164C257.243 85.3601 257.734 85.16 258.239 84.9702C262.194 83.4806 266.123 81.9168 270.199 80.7903C271.849 80.3385 273.472 79.8413 275.183 79.7732C276.027 79.7402 277.039 79.5277 277.353 80.6954C277.631 81.7496 276.862 82.7111 275.703 83.0907C270.681 84.7205 265.663 86.371 260.65 88.0422C260.159 88.2051 259.594 88.4238 259.864 89.0882C260.093 89.6555 260.571 89.6019 261.141 89.441C265.83 88.1164 270.364 86.3257 275.014 84.8856C275.839 84.6277 276.691 84.3987 277.545 84.2213C278.524 84.0149 279.52 83.9221 279.947 85.1559C280.229 85.9687 279.462 87.2994 278.489 87.6687C273.853 89.4279 269.214 91.1795 264.572 92.9235C264.271 93.037 263.953 93.1298 263.665 93.2392C263.213 93.4145 262.766 93.6518 262.949 94.2294C263.155 94.8649 263.667 94.8339 264.186 94.6421C267.03 93.5919 269.88 92.5645 272.715 91.4937C274.561 90.7964 276.382 90.0331 278.223 89.3172C278.654 89.1595 279.096 89.0367 279.547 88.9499C280.419 88.7643 280.916 89.2594 281.314 89.9505C281.768 90.6623 281.38 91.1863 280.881 91.632Z" fill="#242801"/>
<path d="M122.121 172.506C124.34 174.728 126.039 177.395 128.216 179.686C129.598 181.13 129.536 183.17 128.499 184.977C128.051 185.757 128.027 186.422 128.575 187.133C128.654 187.246 128.719 187.368 128.767 187.496C129.26 188.666 129.722 189.877 128.81 191.004C127.926 192.105 126.598 192.097 125.511 191.61C122.647 190.321 120.455 191.171 118.545 193.389C118.339 193.64 118.009 193.733 117.72 193.855C118.322 194.866 117.7 195.895 117.72 196.915C117.741 198.016 118.046 198.297 119.125 198.295C136.533 198.263 153.94 198.263 171.345 198.295C172.683 198.295 172.826 197.853 172.652 196.677C171.904 191.592 171.262 186.488 170.551 181.396C169.854 176.397 169.095 171.404 168.417 166.401C168.305 165.576 167.99 165.37 167.196 165.345C159.884 165.2 152.574 164.986 145.262 164.85C137.254 164.701 129.245 164.643 121.238 164.468C119.945 164.441 119.603 164.829 119.617 166.077C119.636 167.866 119.426 169.655 119.312 171.441C120.481 171.167 121.401 171.794 122.121 172.506ZM131.509 193.622C132.442 191.885 133.381 190.15 134.328 188.419C135.586 186.126 136.852 183.837 138.127 181.553C138.409 181.045 138.675 180.333 139.446 180.74C140.218 181.146 139.741 181.786 139.473 182.277C137.315 186.224 135.142 190.163 132.953 194.092C132.747 194.472 132.617 194.984 131.891 195.014C131.058 194.858 131.163 194.278 131.509 193.63V193.622Z" fill="#ADBEEB"/>
<path d="M124.182 175.601C124.605 176.494 125.25 177.264 126.057 177.835C127.869 179.195 129.531 181.066 128.647 183.288C127.783 185.456 128.113 187.132 128.853 189.089C129.371 190.47 128.441 191.516 126.95 191.547C126.119 191.559 125.297 191.381 124.547 191.025C122.671 190.144 121.067 190.612 119.623 191.922C118.949 192.541 118.353 193.226 117.72 193.884C118.017 193.762 118.338 193.678 118.545 193.418C120.454 191.2 122.646 190.35 125.51 191.639C126.595 192.126 127.923 192.135 128.81 191.033C129.721 189.896 129.259 188.685 128.766 187.526C128.718 187.397 128.654 187.275 128.575 187.162C128.026 186.459 128.051 185.786 128.498 185.007C129.529 183.199 129.597 181.169 128.216 179.715C126.04 177.425 124.339 174.763 122.12 172.535C121.401 171.815 120.471 171.188 119.303 171.489C121.582 172.071 123.205 173.517 124.182 175.601Z" fill="#ADBEEB"/>
<path d="M294.077 45.8305C289.582 43.4084 285.076 41.0015 280.56 38.6096C280.061 38.3456 279.416 37.8401 279.02 38.6426C278.636 39.4143 279.414 39.6742 279.907 39.9383C281.847 40.9946 283.81 42.0014 285.759 43.0495C288.355 44.4359 290.953 45.814 293.535 47.2273C294.217 47.6007 294.735 47.6708 295.088 46.8497C295.059 46.2101 294.49 46.0575 294.077 45.8305Z" fill="#FD9E72"/>
<path d="M273.908 14.5537C275.741 12.9589 277.599 11.3951 279.441 9.80852C279.717 9.57332 280.006 9.32369 280.014 8.909C280.022 8.79392 279.994 8.67916 279.935 8.58027C279.876 8.48138 279.787 8.40313 279.682 8.35608C279.513 8.27776 279.326 8.25125 279.142 8.27989C278.958 8.30854 278.788 8.39107 278.651 8.51701C276.726 10.1441 274.806 11.7781 272.891 13.419C272.514 13.7408 272.273 14.1885 272.685 14.6032C273.042 14.9642 273.479 14.925 273.908 14.5537Z" fill="#ADBEEB"/>
<path d="M222.261 55.6201C222.473 55.5354 222.675 55.4267 222.863 55.2962C224.14 54.2482 225.407 53.1891 226.663 52.119C226.979 51.8508 227.309 51.5496 226.923 51.0875C226.537 50.6253 226.123 50.6604 225.719 50.9905C224.335 52.1211 222.966 53.26 221.595 54.4215C221.351 54.6278 221.102 54.8816 221.3 55.2467C221.479 55.5583 221.784 55.647 222.261 55.6201Z" fill="#FD9E72"/>
<path d="M118.815 185.18C118.654 187.111 119.106 189.1 118.293 190.967C120.512 188.968 122.995 188.648 125.717 189.787C125.978 189.877 126.248 189.937 126.523 189.966C127.387 190.115 127.715 189.663 127.348 188.955C125.461 185.242 123.018 182.339 118.258 184.713C118.327 184.698 118.398 184.698 118.466 184.715C118.535 184.731 118.598 184.763 118.652 184.808C118.706 184.853 118.749 184.91 118.777 184.975C118.805 185.039 118.818 185.109 118.815 185.18Z" fill="#ADBEEB"/>
<path d="M118.491 185.84C118.19 187.542 118.303 189.256 118.285 190.967C119.097 189.098 118.646 187.111 118.807 185.18C118.81 185.11 118.797 185.04 118.769 184.976C118.741 184.912 118.698 184.855 118.645 184.81C118.592 184.765 118.529 184.733 118.461 184.716C118.393 184.699 118.322 184.698 118.254 184.713C118.656 185.023 118.559 185.454 118.491 185.84Z" fill="#ADBEEB"/>
<path d="M118.594 182.797C121.314 181.992 123.857 182.077 125.96 184.289C126.372 184.728 126.639 184.612 126.865 184.132C127.181 183.467 127.484 182.805 127.325 182.031C126.626 178.788 121.805 176.428 118.8 177.86C119.572 179.541 119.551 181.188 118.594 182.797Z" fill="#ADBEEB"/>
<path d="M118.594 182.797C119.551 181.187 119.572 179.541 118.8 177.86C118.907 179.508 118.838 181.163 118.594 182.797Z" fill="#ADBEEB"/>
<path d="M119.104 175.933C120.176 175.786 121.236 175.52 122.578 175.749C121.566 174.392 120.722 173.273 119.114 173.168C119.724 174.092 119.714 175.013 119.104 175.933Z" fill="#ADBEEB"/>
<path d="M119.115 173.168C119.115 174.09 119.115 175.011 119.115 175.933C119.715 175.013 119.725 174.092 119.115 173.168Z" fill="#ADBEEB"/>
<path d="M131.89 195.023C132.616 194.992 132.741 194.48 132.952 194.101C135.138 190.168 137.311 186.23 139.472 182.285C139.74 181.794 140.247 181.173 139.445 180.748C138.643 180.323 138.414 181.053 138.126 181.561C136.851 183.846 135.585 186.134 134.327 188.427C133.379 190.157 132.439 191.892 131.508 193.63C131.162 194.278 131.057 194.858 131.89 195.023Z" fill="#242801"/>
<path d="M36.6875 73.5015C36.7143 74.5021 37.3206 74.8363 37.9907 75.2345C46.7106 80.4377 55.4291 85.6409 64.1463 90.844C67.458 92.8246 70.745 94.8362 74.0443 96.8271C74.7228 97.2026 75.4569 97.5079 76.0693 97.9721C76.9911 98.6674 77.6324 98.5209 78.4263 97.7039C87.4376 88.4281 96.4703 79.1716 105.524 69.9343C105.723 69.7486 105.883 69.5254 105.995 69.2776C106.108 69.0297 106.17 68.7621 106.178 68.4902C106.409 63.5242 106.679 58.5604 106.924 53.5945C107.474 42.4674 108.024 31.3403 108.574 20.2132C108.679 18.1006 108.683 18.1006 106.512 18.0985H36.2091C35.9348 18.0985 35.6564 18.1192 35.3842 18.0985C34.3738 18.0098 33.9408 18.4348 34.0377 19.4684C34.1346 20.5021 34.1408 21.4903 34.1882 22.5012C34.8756 36.3764 35.5629 50.2502 36.2503 64.1226C36.405 67.2523 36.6112 70.382 36.6875 73.5015ZM76.6014 94.9331C76.5457 95.3664 76.8076 95.9977 76.3952 96.1854C75.9229 96.3918 75.5002 95.9131 75.1579 95.5479C71.7926 93.5694 68.4169 91.6074 65.0536 89.6103C56.9125 84.762 48.7775 79.9054 40.6488 75.0406C40.1786 74.76 39.7188 74.465 39.2857 74.1947C39.2857 73.6892 39.661 73.6191 39.9044 73.4643C42.2448 71.9191 44.6059 70.4047 46.9464 68.8574C47.4929 68.4964 47.9527 68.387 48.5961 68.7212C57.8342 73.5792 67.0821 78.4193 76.3395 83.2414C76.5493 83.3254 76.7246 83.478 76.8369 83.6742C76.9492 83.8705 76.992 84.0989 76.9581 84.3225C76.8138 87.6792 76.8756 91.0421 76.5457 94.3926C76.5835 94.5703 76.6022 94.7515 76.6014 94.9331ZM76.789 81.7932C67.7282 76.9971 58.6454 72.2409 49.5405 67.5246C48.7425 67.112 48.427 66.6334 48.3651 65.738C47.5732 54.0772 46.7574 42.4172 45.9174 30.7578C45.9174 30.665 45.9009 30.5742 45.8988 30.4814C45.8493 28.1645 45.3998 28.4348 47.8331 28.3295C57.8549 27.8984 67.8787 27.5208 77.9005 27.104C83.6455 26.8647 89.3905 26.5821 95.1354 26.3366C96.9542 26.2602 96.9171 26.285 96.88 28.049C96.8367 30.1121 96.88 32.1896 96.88 34.261H96.6594C96.2112 44.4239 95.7692 54.5875 95.3334 64.7518C95.3298 65.0691 95.2581 65.3819 95.1233 65.6691C94.9885 65.9564 94.7936 66.2113 94.5519 66.4167C89.2083 71.4164 83.8764 76.4284 78.5562 81.4527C78.0077 81.9479 77.618 82.2161 76.7931 81.7828L76.789 81.7932ZM78.1108 95.845C78.1933 94.4009 78.2551 93.3301 78.317 92.2593C78.3912 89.5525 78.4799 86.8457 78.5232 84.1389C78.5232 83.5489 78.88 83.2249 79.247 82.8783C84.6662 77.7845 90.1019 72.7051 95.4922 67.5783C96.3376 66.7757 97.0326 67.1285 97.8182 67.504L104.027 69.2824L78.1108 95.845ZM35.743 22.5507C35.4626 19.6479 35.4626 19.6479 38.3805 19.6479C60.7074 19.6479 83.0344 19.639 105.361 19.6211C106.64 19.6211 107.116 19.7428 107.03 21.2716C106.411 32.3031 105.898 43.347 105.353 54.3743C105.147 58.5006 104.918 62.6474 104.757 66.7881C104.72 67.7165 104.572 68.0033 103.582 67.6422C101.689 66.9511 99.7442 66.394 97.8203 65.7854C97.0841 65.7648 96.7996 65.4285 96.8367 64.6548C97.146 58.0776 97.4367 51.5004 97.7089 44.9232C97.9811 38.6224 98.2327 32.3196 98.5338 26.0209C98.6039 24.5334 97.6719 24.6819 96.7171 24.7232C84.482 25.2596 72.2524 25.7905 60.0283 26.3159C55.2484 26.5223 50.4664 26.7286 45.6823 26.8771C44.5647 26.9122 44.1399 27.3145 44.2244 28.4719C45.041 39.5357 45.8363 50.6009 46.6102 61.6674C46.7175 63.1838 46.7773 64.7023 46.9155 66.2063C46.9753 66.85 46.7464 67.2172 46.2185 67.5515C43.8862 69.0245 41.5602 70.5079 39.2651 72.0408C38.3124 72.6762 38.1722 72.2904 38.1289 71.3806C37.5639 59.5177 36.9879 47.6554 36.4009 35.7939C36.1837 31.3816 35.965 26.9699 35.7451 22.559L35.743 22.5507Z" fill="#242801"/>
<path d="M70.2184 100.811C71.468 99.4593 72.7712 98.1554 74.0518 96.8329C73.3898 96.9444 72.9094 96.5317 72.4021 96.2305C60.9822 89.3892 49.5493 82.5692 38.1033 75.7706C36.9857 75.1042 36.3917 74.2831 36.3258 72.9049C36.0439 67.0704 35.7614 61.2352 35.4782 55.3994C35.1875 49.4287 34.9214 43.4539 34.4987 37.4874C34.3255 35.0612 34.1296 32.6164 34.1729 30.1798C34.2059 28.191 33.7873 26.2372 33.8678 24.2525C33.8904 23.6501 33.8678 23.0517 34.1833 22.505C32.1212 22.8867 30.0591 22.5979 27.997 22.6659C27.3021 22.6886 26.8587 22.7835 26.9041 23.6521C27.2732 30.8194 27.6052 37.9908 27.964 45.158C28.4836 55.5438 29.0383 65.9254 29.5126 76.3111C29.5641 77.4685 29.9395 78.1266 30.9231 78.7023C35.8412 81.5906 40.716 84.5388 45.6114 87.4602C53.1916 91.9846 60.7843 96.4925 68.3439 101.05C69.1419 101.535 69.6224 101.454 70.2184 100.811Z" fill="#FED6C3"/>
<path d="M34.1774 30.18C34.1341 32.6166 34.33 35.0614 34.5032 37.4876C34.9259 43.4541 35.1919 49.4289 35.4827 55.3996C35.7672 61.2341 36.0498 67.0692 36.3302 72.9051C36.3962 74.2833 36.9901 75.1044 38.1077 75.7708C49.5468 82.5818 60.9798 89.4018 72.4065 96.2307C72.9097 96.532 73.3901 96.9446 74.0562 96.8332C70.7569 94.8361 67.4575 92.8245 64.1582 90.8501C55.4437 85.6414 46.7252 80.4383 38.0025 75.2406C37.3324 74.8424 36.7261 74.5082 36.6993 73.5076C36.623 70.3819 36.4168 67.2584 36.2622 64.1327C35.5748 50.259 34.8874 36.3852 34.2001 22.5114C33.8907 23.0581 33.9072 23.6564 33.8846 24.2589C33.7918 26.2312 34.2104 28.1912 34.1774 30.18Z" fill="#FED6C3"/>
<path d="M24.1329 84.9225C23.5947 84.7595 23.2792 85.0772 22.9905 85.4754C21.4048 87.6788 19.8045 89.8698 18.225 92.0774C17.9239 92.49 17.361 92.9645 18.0188 93.4906C18.7199 94.0497 19.0869 93.4514 19.4437 92.9604C21.0397 90.7597 22.6331 88.5591 24.2236 86.3584C24.3824 86.1397 24.5185 85.9087 24.601 85.7807C24.6566 85.2773 24.4814 85.0298 24.1329 84.9225Z" fill="#242801"/>
<path d="M154.822 53.8769C155.127 55.2303 155.647 56.1278 157.214 55.5274C157.969 55.612 158.705 55.6512 159.421 55.7895C160.136 55.9277 160.732 56.233 160.883 57.0459C161.033 57.8588 160.644 58.4571 160.008 58.9233C159.446 59.3217 158.824 59.6281 158.165 59.8311C157.697 59.9858 157.317 60.2561 157.489 60.8358C157.66 61.4156 158.087 61.4279 158.588 61.2815C159.804 60.9287 160.899 60.3902 161.704 59.369C163.042 57.6669 162.512 55.4325 160.549 54.564C159.575 54.1442 158.508 53.9891 157.456 54.1142C156.688 54.1967 156.398 53.9079 156.231 53.2333C155.849 51.6777 155.459 50.12 154.993 48.5892C154.831 48.0528 154.812 47.0975 153.855 47.4091C153.076 47.6628 153.389 48.3829 153.536 48.9461C153.96 50.5966 154.451 52.2264 154.822 53.8769Z" fill="#242801"/>
<path d="M142.053 53.0721C143.019 53.264 144.019 52.4016 143.977 51.3041C143.784 50.6851 143.633 49.9156 143.299 49.2285C142.866 48.3393 141.742 48.2114 140.952 48.8593C140.094 49.5669 140.455 50.4066 140.659 51.2484C140.864 52.0901 141.072 52.8741 142.053 53.0721Z" fill="#242801"/>
<path d="M158.506 45.1559C158.522 46.8064 159.378 48.0979 160.413 48.0814C161.448 48.0649 162.036 47.5491 162.028 46.4701C161.997 44.7887 161.188 43.4414 160.172 43.5116C159.203 43.5776 158.493 44.0769 158.506 45.1559Z" fill="#242801"/>
<path d="M149.851 72.4203C150.544 72.3419 151.501 72.6039 151.501 71.4857C151.501 70.4253 150.591 70.8359 150.028 70.807C148.96 70.7533 148.042 70.5264 147.521 69.4494C147.315 69.0183 146.925 68.715 146.389 69.0368C145.898 69.3401 145.916 69.7259 146.137 70.221C146.869 71.8509 148.263 72.2842 149.851 72.4203Z" fill="#242801"/>
<path d="M135.939 46.1794C136.489 46.5508 140.15 44.4072 140.176 43.5572C140.084 43.0373 139.646 42.6639 139.048 42.9775C137.962 43.5635 136.913 44.2182 135.91 44.9374C135.407 45.2881 135.392 45.806 135.939 46.1794Z" fill="#242801"/>
<path d="M156.575 37.6215C157.516 37.9495 158.47 38.2404 159.196 38.4715C159.869 38.5829 160.256 38.5519 160.405 38.0341C160.553 37.5163 160.361 37.1305 159.85 36.9675C158.899 36.6663 157.945 36.3712 156.977 36.1278C156.528 36.0143 156.179 36.2846 156.019 36.7055C155.823 37.2192 156.171 37.4791 156.575 37.6215Z" fill="#242801"/>
<path d="M94.5437 66.4039C94.7854 66.1984 94.9803 65.9435 95.1151 65.6563C95.2499 65.3691 95.3216 65.0562 95.3252 64.7389C95.75 54.5747 96.192 44.411 96.6512 34.2481H96.8718C96.8718 32.185 96.8388 30.1054 96.8718 28.0361C96.9089 26.2721 96.946 26.2474 95.1272 26.3237C89.3822 26.5692 83.6373 26.8519 77.8923 27.0912C67.8705 27.5038 57.8467 27.8855 47.8249 28.3167C45.3916 28.4219 45.8411 28.1516 45.8906 30.4685C45.8906 30.5613 45.903 30.6521 45.9092 30.745C46.734 42.4043 47.55 54.0644 48.3569 65.7251C48.4188 66.6205 48.7343 67.0991 49.5323 67.5118C58.6316 72.2363 67.7145 76.9925 76.7808 81.7803C77.6056 82.2135 77.9995 81.9453 78.5377 81.4378C83.8675 76.4162 89.2029 71.4049 94.5437 66.4039ZM61.742 63.5733C61.5007 63.8497 61.2759 64.1448 61.0223 64.3985C60.6099 64.8256 60.1562 65.4301 59.5397 64.8442C59.02 64.349 59.4571 63.8312 59.8263 63.4C61.1199 61.9022 62.4149 60.4057 63.7113 58.9106C71.8744 49.5455 80.0396 40.1823 88.2069 30.8213C88.4133 30.575 88.6372 30.344 88.8771 30.1302C88.979 30.0352 89.11 29.9774 89.2488 29.9662C89.3876 29.9549 89.5262 29.9909 89.6421 30.0683C89.7449 30.1379 89.8327 30.2275 89.9004 30.3317C89.968 30.4359 90.0141 30.5525 90.0359 30.6748C89.9514 31.2504 89.5926 31.564 89.2957 31.9127C82.4399 39.7938 75.5807 47.6728 68.718 55.5498L61.742 63.5733ZM73.3412 67.5613C72.9515 67.9739 72.5164 68.632 71.8586 68.0152C71.2008 67.3983 71.7926 66.9836 72.2153 66.538C77.9782 60.5164 83.739 54.4901 89.4978 48.4589C89.8545 48.0875 90.2071 47.7017 90.7927 47.8523C90.9294 47.8855 91.0502 47.9656 91.1338 48.0787C91.2175 48.1918 91.2588 48.3308 91.2505 48.4713C91.2629 48.8839 91.003 49.1418 90.7453 49.412C84.9426 55.457 79.1398 61.5047 73.3371 67.5551L73.3412 67.5613Z" fill="#FED6C3"/>
<path d="M36.4024 35.7772C36.9839 47.6401 37.5599 59.5023 38.1304 71.3639C38.1737 72.2737 38.3139 72.6595 39.2666 72.0241C41.5617 70.4912 43.8877 69.0078 46.22 67.5347C46.7479 67.2005 46.9768 66.8333 46.917 66.1896C46.7788 64.6773 46.7108 63.1589 46.6118 61.6507C45.8241 50.5855 45.0288 39.5204 44.2259 28.4552C44.1414 27.2978 44.5662 26.8955 45.6838 26.8604C50.4679 26.7015 55.2499 26.5034 60.0298 26.2992C72.2649 25.7752 84.4945 25.2443 96.7186 24.7065C97.6734 24.6652 98.6054 24.5167 98.5353 26.0042C98.2363 32.3029 97.9847 38.6057 97.7104 44.9065C97.4286 51.4837 97.1379 58.0609 96.8382 64.6381C96.8011 65.4118 97.0856 65.7481 97.8218 65.7687C98.2136 57.8174 98.5889 49.8641 98.9972 41.9129C99.3024 35.9855 99.6158 30.0582 100.008 24.1371C100.098 22.7836 99.554 22.6702 98.4487 22.6702C78.1412 22.6963 57.833 22.7004 37.5241 22.6826C36.9302 22.6826 36.3384 22.5959 35.7466 22.5485C35.9652 26.9553 36.1838 31.3648 36.4024 35.7772Z" fill="#FED6C3"/>
<path d="M76.3374 83.2307C67.08 78.4071 57.8322 73.567 48.594 68.7105C47.9589 68.3762 47.4991 68.4856 46.9443 68.8466C44.6039 70.394 42.2428 71.9083 39.9023 73.4536C39.6652 73.6083 39.2837 73.6785 39.2837 74.1839C39.7167 74.4542 40.1765 74.7492 40.6467 75.0298C48.7796 79.8891 56.9146 84.7457 65.0516 89.5995C68.4066 91.5966 71.7823 93.5587 75.1559 95.5372L76.5519 94.3798C76.8715 91.0293 76.8097 87.6664 76.9643 84.3097C76.9971 84.0854 76.953 83.8567 76.8391 83.6607C76.7253 83.4648 76.5484 83.3132 76.3374 83.2307Z" fill="#FED6C3"/>
<path d="M85.4429 85.191C89.167 81.4443 92.8149 77.6234 96.5411 73.8789C97.2402 73.1753 97.5928 72.4842 97.5721 71.4774C97.5557 70.1508 97.7289 68.8222 97.8196 67.4935C97.0339 67.118 96.339 66.7653 95.4935 67.5678C90.1032 72.6946 84.6675 77.7741 79.2484 82.8679C78.8813 83.2145 78.5349 83.5384 78.5246 84.1284C78.4751 86.8353 78.3864 89.5421 78.3184 92.2489C80.8877 90.0909 83.088 87.5615 85.4429 85.191Z" fill="#FED6C3"/>
<path d="M90.0318 30.6812C90.01 30.5589 89.9639 30.4423 89.8963 30.3381C89.8286 30.2339 89.7408 30.1444 89.638 30.0747C89.5221 29.9973 89.3836 29.9614 89.2447 29.9726C89.1059 29.9838 88.9749 30.0416 88.873 30.1366C88.6332 30.3504 88.4092 30.5814 88.2028 30.8277C80.0369 40.1902 71.8717 49.5533 63.7072 58.9171C62.4053 60.4094 61.1103 61.9058 59.8222 63.4064C59.4531 63.8355 59.0159 64.3534 59.5356 64.8506C60.1542 65.4365 60.6078 64.832 61.0182 64.405C61.2718 64.1409 61.4966 63.8459 61.7379 63.5797L68.714 55.5625C75.5752 47.6841 82.4344 39.805 89.2916 31.9253C89.5803 31.5704 89.9473 31.2568 90.0318 30.6812Z" fill="#242801"/>
<path d="M91.248 48.4613C91.2563 48.3208 91.215 48.1819 91.1313 48.0688C91.0476 47.9556 90.9269 47.8755 90.7902 47.8424C90.2046 47.6918 89.8519 48.0776 89.4952 48.4489C83.7365 54.4774 77.9757 60.5037 72.2128 66.528C71.7901 66.9675 71.2127 67.4007 71.8561 68.0052C72.4994 68.6097 72.949 67.9557 73.3387 67.5513C79.1455 61.4995 84.9469 55.4477 90.7427 49.3959C91.0005 49.1318 91.2604 48.874 91.248 48.4613Z" fill="#242801"/>
</svg>
